# xmcd CD database file
#
# Track frame offsets:
#	150
#	15118
#	28639
#	46008
#	61649
#	81106
#	100119
#	117743
#	136802
#	155576
#	174420
#	190254
#	211605
#	229044
#
# Disc length: 3239 seconds
#
# Revision: 1
# Processed by: cddbd v1.5.1PL0 Copyright (c) Steve Scherf et al.
# Submitted via: CDex 1.50
#
DISCID=a00ca50e
DTITLE=Delirium - Jesahel
DYEAR=1900
DGENRE=New Age
TTITLE0=Jesahel
TTITLE1=Haum
TTITLE2=Canto di osanna
TTITLE3=Dolce acqua
TTITLE4=Sola
TTITLE5=Stornarella
TTITLE6=Fermo il cuore
TTITLE7=Stella che bruci
TTITLE8=La pietra
TTITLE9=Jonathan
TTITLE10=Favola o storia del lago di kriss
TTITLE11=Aspettando amore
TTITLE12=Amore facile
TTITLE13=Tapty
EXTD=
EXTT0=
EXTT1=
EXTT2=
EXTT3=
EXTT4=
EXTT5=
EXTT6=
EXTT7=
EXTT8=
EXTT9=
EXTT10=
EXTT11=
EXTT12=
EXTT13=
PLAYORDER=
